<svg xmlns="http://www.w3.org/2000/svg" viewBox="0 0 100 100" width="100" height="100">
<circle cx="79.3" cy="32.9" r="1.1" fill="black"/>
<circle cx="81.6" cy="12.3" r="1.5" fill="black"/>
<circle cx="55.7" cy="60.9" r="1.0" fill="black"/>
<circle cx="62.8" cy="50.1" r="2.0" fill="black"/>
<circle cx="3.8" cy="94.8" r="1.0" fill="black"/>
<circle cx="80.7" cy="50.7" r="2.0" fill="black"/>
<circle cx="18.9" cy="32.5" r="0.9" fill="black"/>
<circle cx="77.3" cy="53.3" r="1.1" fill="black"/>
<circle cx="19.8" cy="8.9" r="1.1" fill="black"/>
<circle cx="55.9" cy="43.9" r="1.8" fill="black"/>
<circle cx="8.5" cy="83.3" r="2.2" fill="black"/>
<circle cx="73.5" cy="73.8" r="2.0" fill="black"/>
<circle cx="10.3" cy="46.2" r="0.9" fill="black"/>
<circle cx="77.6" cy="53.7" r="0.9" fill="black"/>
<circle cx="44.6" cy="77.1" r="1.6" fill="black"/>
<circle cx="12.9" cy="92.8" r="0.9" fill="black"/>
<circle cx="83.6" cy="96.5" r="1.9" fill="black"/>
<circle cx="93.7" cy="53.0" r="1.1" fill="black"/>
<circle cx="47.3" cy="73.3" r="1.9" fill="black"/>
<circle cx="38.7" cy="93.8" r="0.8" fill="black"/>
<circle cx="49.6" cy="4.9" r="1.3" fill="black"/>
<circle cx="98.0" cy="12.6" r="2.2" fill="black"/>
<circle cx="89.7" cy="68.5" r="0.9" fill="black"/>
<circle cx="47.2" cy="68.8" r="0.9" fill="black"/>
<circle cx="30.2" cy="10.0" r="2.0" fill="black"/>
<circle cx="90.7" cy="91.5" r="1.9" fill="black"/>
<circle cx="57.4" cy="7.1" r="1.5" fill="black"/>
<circle cx="75.5" cy="75.1" r="0.8" fill="black"/>
<circle cx="1.8" cy="9.6" r="2.1" fill="black"/>
<circle cx="12.1" cy="39.2" r="1.5" fill="black"/>
<circle cx="87.6" cy="14.3" r="1.2" fill="black"/>
<circle cx="76.6" cy="9.4" r="1.0" fill="black"/>
<circle cx="3.5" cy="94.9" r="1.1" fill="black"/>
<circle cx="50.1" cy="38.2" r="2.2" fill="black"/>
<circle cx="70.8" cy="59.9" r="1.5" fill="black"/>
<circle cx="27.2" cy="83.2" r="0.9" fill="black"/>
<circle cx="61.9" cy="29.9" r="1.2" fill="black"/>
<circle cx="45.5" cy="19.5" r="1.6" fill="black"/>
<circle cx="7.9" cy="2.8" r="1.0" fill="black"/>
<circle cx="9.8" cy="87.1" r="1.5" fill="black"/>
<circle cx="67.5" cy="77.3" r="1.0" fill="black"/>
<circle cx="94.2" cy="38.7" r="1.4" fill="black"/>
<circle cx="48.9" cy="69.1" r="1.9" fill="black"/>
<circle cx="20.0" cy="82.2" r="1.4" fill="black"/>
<circle cx="25.6" cy="85.7" r="2.0" fill="black"/>
<circle cx="85.1" cy="32.7" r="2.1" fill="black"/>
<circle cx="77.0" cy="96.1" r="1.9" fill="black"/>
<circle cx="99.0" cy="47.9" r="1.8" fill="black"/>
<circle cx="77.6" cy="52.4" r="1.5" fill="black"/>
<circle cx="40.2" cy="86.1" r="1.3" fill="black"/>
<circle cx="74.2" cy="56.1" r="1.8" fill="black"/>
<circle cx="31.3" cy="8.7" r="1.7" fill="black"/>
<circle cx="15.2" cy="36.2" r="1.9" fill="black"/>
<circle cx="5.8" cy="90.3" r="1.6" fill="black"/>
<circle cx="56.0" cy="67.4" r="0.9" fill="black"/>
<circle cx="3.2" cy="71.6" r="1.6" fill="black"/>
<circle cx="63.7" cy="81.7" r="1.2" fill="black"/>
<circle cx="16.8" cy="96.0" r="0.9" fill="black"/>
<circle cx="51.5" cy="62.1" r="2.1" fill="black"/>
<circle cx="9.5" cy="69.8" r="0.9" fill="black"/>
<circle cx="45.5" cy="61.8" r="2.0" fill="black"/>
<circle cx="5.6" cy="74.4" r="1.0" fill="black"/>
<circle cx="40.7" cy="97.2" r="2.0" fill="black"/>
<circle cx="8.5" cy="1.4" r="0.8" fill="black"/>
<circle cx="77.5" cy="4.8" r="1.9" fill="black"/>
<circle cx="80.1" cy="81.1" r="2.1" fill="black"/>
<circle cx="63.1" cy="81.8" r="1.6" fill="black"/>
<circle cx="66.5" cy="7.8" r="1.6" fill="black"/>
<circle cx="98.1" cy="39.0" r="1.8" fill="black"/>
<circle cx="18.5" cy="48.2" r="1.6" fill="black"/>
<circle cx="76.4" cy="32.6" r="1.5" fill="black"/>
<circle cx="19.6" cy="57.6" r="2.1" fill="black"/>
<circle cx="38.9" cy="65.6" r="1.6" fill="black"/>
<circle cx="20.2" cy="69.2" r="1.1" fill="black"/>
<circle cx="61.2" cy="98.4" r="1.2" fill="black"/>
<circle cx="66.5" cy="34.3" r="1.7" fill="black"/>
<circle cx="19.7" cy="50.1" r="1.9" fill="black"/>
<circle cx="21.9" cy="35.8" r="1.1" fill="black"/>
<circle cx="16.5" cy="66.7" r="2.0" fill="black"/>
<circle cx="52.6" cy="44.8" r="1.2" fill="black"/>
<circle cx="24.5" cy="93.4" r="1.5" fill="black"/>
<circle cx="67.8" cy="28.3" r="1.0" fill="black"/>
<circle cx="1.9" cy="30.0" r="1.4" fill="black"/>
<circle cx="52.1" cy="61.4" r="1.8" fill="black"/>
<circle cx="86.9" cy="79.6" r="1.8" fill="black"/>
<circle cx="79.9" cy="54.1" r="1.5" fill="black"/>
<circle cx="90.7" cy="88.6" r="1.3" fill="black"/>
<circle cx="86.0" cy="43.1" r="1.9" fill="black"/>
<circle cx="3.4" cy="59.3" r="2.1" fill="black"/>
<circle cx="44.0" cy="86.3" r="1.8" fill="black"/>
<circle cx="3.0" cy="8.5" r="1.3" fill="black"/>
<circle cx="96.2" cy="65.4" r="1.6" fill="black"/>
<circle cx="85.3" cy="35.3" r="1.0" fill="black"/>
<circle cx="44.7" cy="90.0" r="1.0" fill="black"/>
<circle cx="49.3" cy="29.8" r="1.3" fill="black"/>
<circle cx="10.1" cy="89.9" r="1.2" fill="black"/>
<circle cx="78.3" cy="18.0" r="1.4" fill="black"/>
<circle cx="3.4" cy="58.7" r="1.5" fill="black"/>
<circle cx="43.3" cy="20.6" r="1.7" fill="black"/>
<circle cx="4.5" cy="92.5" r="1.5" fill="black"/>
<circle cx="60.9" cy="42.6" r="0.8" fill="black"/>
<circle cx="3.9" cy="72.1" r="1.5" fill="black"/>
<circle cx="28.2" cy="53.7" r="2.0" fill="black"/>
<circle cx="51.0" cy="51.8" r="1.6" fill="black"/>
<circle cx="86.6" cy="4.1" r="1.7" fill="black"/>
<circle cx="57.5" cy="71.2" r="1.0" fill="black"/>
<circle cx="82.2" cy="78.8" r="1.2" fill="black"/>
<circle cx="93.9" cy="6.2" r="1.6" fill="black"/>
<circle cx="9.5" cy="19.5" r="1.7" fill="black"/>
<circle cx="70.1" cy="48.0" r="1.1" fill="black"/>
<circle cx="54.4" cy="44.9" r="1.3" fill="black"/>
<circle cx="41.2" cy="46.3" r="1.3" fill="black"/>
<circle cx="13.0" cy="49.7" r="1.2" fill="black"/>
<circle cx="78.7" cy="94.6" r="1.8" fill="black"/>
<circle cx="33.3" cy="47.7" r="1.8" fill="black"/>
<circle cx="23.4" cy="79.3" r="0.9" fill="black"/>
<circle cx="95.8" cy="55.6" r="1.9" fill="black"/>
<circle cx="59.8" cy="84.2" r="1.4" fill="black"/>
<circle cx="9.9" cy="21.2" r="1.8" fill="black"/>
<circle cx="97.4" cy="23.3" r="1.5" fill="black"/>
</svg>